<svg xmlns="http://www.w3.org/2000/svg" xmlns:xlink="http://www.w3.org/1999/xlink" width="84.029" height="50.984" x="0" y="0" version="1.1" viewBox="0 0 84.029 50.984" xml:space="preserve" style="enable-background:new 0 0 84.029 50.984"><path d="M48.103,10.991c2.99-4.864,7.856-6.156,12.975-6.727c4.939-0.548,9.726,0.087,14.005,3.137 C76.537,4.978,76.673,1.885,79.385,0c1.084,3.407-0.005,6.381-0.546,9.381c-2.978,0.155-5.956,0.311-8.935,0.468 c0.359-1.24-0.574-1.405-1.368-1.63c-4.269-1.222-8.604-1.337-12.849-0.141c-2.034,0.573-3.871,1.856-5.798,2.818 C49.294,10.928,48.699,10.96,48.103,10.991z"/><path d="M4.856,13.255c4.441-6.17,10.641-9.244,17.944-10.29c3.693-0.528,7.372-0.301,10.961,0.794 c1.05,0.321,2.057,0.791,2.975,1.587c-1.781-0.195-3.559-0.473-5.345-0.566c-7.935-0.426-15.109,1.505-21.043,7.126 c-0.332,0.315-0.566,0.735-0.846,1.107C7.954,13.093,6.405,13.174,4.856,13.255z"/><path d="M63.114,10.203c-0.377-0.361-0.753-0.725-1.13-1.087c1.881-1.922,4.067-1.634,6.491,0.807 C66.688,10.017,64.901,10.111,63.114,10.203z"/><path d="M45.244,11.14c-1.739-1.573-3.479-3.145-5.209-4.708c2.446,1.115,4.856,2.384,6.639,4.634 C46.197,11.091,45.72,11.116,45.244,11.14z"/><path d="M22.657,7.718c5.55-3.152,13.771-1.804,15.349,2.28C33.493,7.067,30.829,6.651,22.657,7.718z"/><path d="M9.134,12.817c-3.377,3.998-5.091,8.661-5.331,13.873C3.411,35.24,7.877,42.2,16.152,45.217 c9.678,3.53,18.82,2.125,26.958-4.303c7.915-6.251,12.525-18.773,2.479-30.007c1.192-0.062,2.384-0.125,3.575-0.188 c-0.292,0.431-0.584,0.864-0.9,1.333c6.146,7.355,6.879,15.415,2.836,24.239c5.412,1.759,10.759,2.1,16.112,0.094 c5.577-2.09,8.836-6.225,10.046-12.087C77.105,36.229,63.523,42.315,50.866,36.74c-0.475,0.723-0.935,1.483-1.451,2.203 c-4.154,5.785-9.711,9.346-16.576,11.078c-6.016,1.519-11.895,1.234-17.678-0.788C3.142,45.028-2.703,32.985,1.205,20.404 c0.791-2.544,2.173-4.9,3.283-7.345C6.037,12.979,7.585,12.897,9.134,12.817z"/><path d="M78.471,9.186c0.171,0.428,0.23,0.967,0.527,1.268c8.184,8.286,5.961,21.742-3.626,29.054 c-6.673,5.089-14.985,5.567-21.558,1.265c-0.476-0.312-0.912-0.682-1.212-1.298c0.519,0.223,1.037,0.44,1.554,0.665 c14.458,6.292,27.358-7.829,25.704-19.073c-0.132-0.889-0.315-1.779-0.588-2.633c-0.862-2.692-0.959-2.725-4.017-1.985 c0.148,1.438,0.299,2.905,0.476,4.621c-1.303-1.308-2.476-2.486-3.746-3.762c-0.4,0.805-0.689,1.385-0.979,1.967 c-0.104-0.025-0.209-0.051-0.313-0.076c0.268-1.097,0.534-2.194,0.85-3.492c0.888,0.668,1.535,1.153,2.366,1.778 c-0.039-0.763-0.067-1.313-0.104-2.011c1.238-0.065,2.392-0.126,3.942-0.207c-0.608-0.815-1.033-1.384-1.448-1.94 c-3.499,2.032-5.308,2.298-8.198,1.234c1.754-1.158,3.493-2.309,5.405-3.573c-0.665-0.664-1.067-1.065-1.47-1.463 C74.182,9.41,76.327,9.297,78.471,9.186z"/><path d="M65.248,9.879c1.903,2.441,0.739,4.576-0.799,6.648c1.443-0.075,2.75-0.228,4.037-0.126 c0.216,0.017,0.345,1.142,0.562,1.927c-0.669-0.639-1.158-1.491-1.673-1.507c-0.75-0.021-1.598,0.442-2.258,0.909 c-1.062,0.751-2.006,1.672-3.343,2.361c0.65-1.563,1.189-3.186,1.976-4.675c1.587-3.004,1.643-2.973-0.289-5.445 C64.056,9.939,64.652,9.908,65.248,9.879z"/><path d="M20.263,31.45c0.357-0.933,0.531-1.498,0.785-2.027c0.871-1.819,2.252-2.172,3.929-1.113 c0.712,0.449,1.519,0.746,2.51,0.771c-0.393-0.591-0.786-1.183-1.178-1.773c0.076-0.067,0.153-0.135,0.229-0.202 c1.147,0.964,2.294,1.932,3.747,3.156c-2.311-0.061-4.312,0.597-6.057-0.936c-0.875-0.769-1.726-0.363-1.961,0.553 c-0.299,1.161-0.29,2.424-0.267,3.641c0.011,0.627,0.34,1.247,0.267,2.03c-0.702-0.967-1.42-1.923-2.102-2.903 c-0.715-1.028-1.396-2.082-2.148-3.21c-0.575,1.048-1.112,2.103-1.719,3.114c-0.5,0.833-1.125,1.09-1.786,0.131 c-1.178-1.713-0.312-5.756,1.633-7.654c1.952-1.901,4.228-2.053,6.185-0.6c-1.188,1.354-2.563,2.612-3.476,4.151 C18.59,29.021,19.654,30.271,20.263,31.45z"/><path d="M47.379,22.36c3.282,11.179-8.855,24.545-20.178,21.873c5.823-0.743,10.771-2.877,14.835-6.75 C46.313,33.41,47.727,28.195,47.379,22.36z"/><path d="M30.381,19.928c-1.588,0.649-3.226,1.318-5.118,2.093c0.916-0.872,1.726-1.645,2.965-2.828 c-1.601-0.006-3.039-0.376-4.191,0.046c-4.967,1.824-5.185,1.828-7.936-2.652c-0.158,0.042-0.316,0.086-0.475,0.129 c0.433,1.617,0.866,3.234,1.258,4.698c-2.465-2.291-2.663-5.566-0.302-7.451c0.414,1.059,0.739,2.157,1.255,3.155 c1.134,2.189,2.314,2.539,4.537,1.492C25.38,17.192,27.952,17.638,30.381,19.928z"/></svg>