<svg version="1.1" xmlns="http://www.w3.org/2000/svg" xmlns:xlink="http://www.w3.org/1999/xlink" x="0px" y="0px" width="98.003px" height="54.025px" viewBox="0 0 98.003 54.025" style="enable-background:new 0 0 98.003 54.025;" xml:space="preserve"> <path d="M10.95,40.578c-3.02,1.914-5.449,1.641-7.827-0.885c-2.543-2.701-3.507-5.99-2.986-9.631 c0.67-4.682,4.771-7.4,9.74-6.574c0.976,0.162,1.921,0.537,2.868,0.855c1.244,0.416,1.975,0.414,0.816,2.332 c-2.597,4.3-2.207,9.02,0.329,13.363c2.376,4.072,5.826,6.404,10.72,5.771c0.916-0.117,1.834-0.42,2.687-0.789 c3.688-1.596,6.487-4.303,8.6-7.67c1.867-2.975,1.709-6.139,0.117-9.232c-3.316-6.436-10.983-9.093-17.515-6.08 c-0.94,0.434-1.868,0.894-2.904,1.176c1.25-2.424,3.301-3.945,5.798-4.533c2.384-0.561,4.892-0.583,7.022-0.806 c1.094-1.747,2.214-3.442,3.221-5.204c0.276-0.483,0.316-1.17,0.288-1.753c-0.144-2.901,0.53-5.528,2.372-7.798 c2.2-2.71,5.562-3.791,8.372-2.702c2.854,1.108,4.586,4.105,4.426,7.664c-0.02,0.438-0.055,0.874-0.095,1.508 c3.154,0.789,5.803,2.51,7.621,5.149c1.721,2.496,3.028,5.284,4.442,7.812c1.21-0.975,2.683-2.576,4.486-3.544 c9.791-5.259,19.556-4.661,28.893,1.051c5.456,3.337,6.947,9.126,4.263,14.079c-0.37,0.684-0.918,1.266-1.753,1.717 c0.155-0.785,0.295-1.574,0.467-2.354c0.974-4.428-0.165-7.902-3.998-10.129c-8.142-4.73-16.68-5.116-25.169-1.094 c-4.802,2.273-6.493,6.451-5.642,11.862c0.745,4.729,2.5,8.888,7.017,10.991c1.899,0.884,4.169,1.045,6.298,1.299 c1.18,0.143,1.711-0.633,1.904-1.98c0.361-2.531,1.092-5.01,1.668-7.512c0.218,0.023,0.436,0.049,0.653,0.072 c-0.009,0.686-0.088,1.379-0.015,2.057c0.268,2.502,0.309,5.076,0.957,7.479c0.788,2.922,3.107,3.863,5.922,2.896 c3.957-1.357,6.186-5.453,5.083-9.545c-0.467-1.734-1.175-3.402-1.952-5.602c0.906,0.459,1.405,0.633,1.813,0.932 c3.468,2.555,4.815,7.615,3.163,11.787c-1.728,4.359-6.475,7.463-10.623,6.955c-3.281-0.4-5.331-2.275-6.329-5.408 c-0.188-0.59-0.336-1.195-0.503-1.799c-9.503,3.334-15.75-1.645-19.259-15.367c-0.465,0.494-0.872,0.928-1.278,1.359 c-3.767,4.014-8.479,5.967-13.847,6.304c-1.16,0.073-1.725,0.462-2.354,1.375c-2.358,3.429-5.305,6.239-9.074,8.043 c-6.851,3.28-14.413,0.714-17.965-6.062C11.594,41.859,11.315,41.295,10.95,40.578z M40.711,37.574 c4.507-1.558,8.637-3.525,11.626-7.322c2.687-3.416,2.85-6.816,0.649-10.569c-3.923-6.691-12.441-9.334-19.449-6.021 c-2.003,0.948-3.51,2.363-4.113,4.612C38.162,21.494,42.83,28.625,40.711,37.574z M12.776,26.063 c-2.11,0.336-3.662,0.475-5.157,0.848c-1.683,0.42-2.896,1.51-3.216,3.314c-0.562,3.166,0.209,6.02,2.291,8.438 c1.059,1.23,2.374,1.459,3.836,0.496C9.452,34.639,10.016,30.447,12.776,26.063z M33.653,10.584 c3.725-0.621,7.471-1.245,11.273-1.879c-0.308-0.606-0.688-1.543-1.226-2.374c-1.528-2.366-3.212-2.732-5.556-1.221 C35.986,6.503,34.568,8.507,33.653,10.584z"></path> <path d="M88.492,30.396c-3.563-3.443-6.892-6.296-11.725-4.837c-4.194,1.267-8.141,2.948-10.228,7.243 c-0.13-3.166,4.419-7.107,9.854-8.5C81.208,23.072,86.115,25.363,88.492,30.396z"></path> <path d="M30.661,37.871c-2.121,4.033-6.278,5.611-10.094,3.986c-3.932-1.674-6.093-6.287-4.801-10.841 c0.112,4.292,1.367,7.7,5.073,9.499C24.733,42.406,27.808,40.512,30.661,37.871z"></path> <path d="M83.633,33.865c1.668-0.152,2.688,0.531,3.405,1.744c1.941,3.287,0.218,9.438-2.839,11.137 c0.704-2.051,1.733-4.299,2.223-6.658C87.069,36.957,86.222,35.383,83.633,33.865z"></path> <path d="M43.995,34.021c6.965-8.316,7.352-11.357,2.159-17c3.011,0.976,4.753,3.705,4.668,7.31 C50.722,28.508,47.503,33.076,43.995,34.021z"></path> </svg>