<svg xmlns="http://www.w3.org/2000/svg" xmlns:xlink="http://www.w3.org/1999/xlink" width="94.978" height="74.993" x="0" y="0" version="1.1" viewBox="0 0 94.978 74.993" xml:space="preserve" style="enable-background:new 0 0 94.978 74.993"><path d="M27,25.87c-0.607,0.266-1.366,0.386-1.796,0.823c-3.335,3.395-5.31,7.521-6.012,12.164 c-0.845,5.583-0.776,11.155,1.125,16.576c0.26,0.741,0.611,1.453,0.952,2.164c0.114,0.236,0.329,0.428,0.69,0.885 c4.729-10.251,7.311-20.669,6.484-31.809c3.491,13.597,1.251,26.265-5.782,38.309c-9.619-6.804-9.831-27.095-1.836-37.023 C13.81,31.436,7.298,35.661,0,29.98c0.536,0.092,1.084,0.138,1.605,0.283c3.602,1.009,7.047,0.505,10.291-1.208 c2.613-1.379,5.073-3.048,7.707-4.386c2.813-1.431,5.75-2.621,8.833-4.006c-0.046-0.884-0.172-2.02-0.151-3.154 c0.052-2.846,1.274-5.066,3.653-6.721c0.536-0.375,1.064-1.177,1.079-1.794c0.065-2.695,1.319-4.714,3.477-6.12 c4.639-3.019,9.659-3.747,14.898-1.771c2.616,0.985,4.617,2.682,4.969,5.706c0.039,0.334,0.313,0.639,0.355,0.974 c0.137,1.102,0.679,2.507,0.199,3.239c-0.572,0.874-2.037,1.176-3.365,1.853c-0.041-0.775-0.073-0.861-0.044-0.914 c3.322-5.99-0.753-8.204-5.306-8.52c-3.353-0.233-6.474,0.61-9.265,2.449c-2.47,1.626-2.726,3.719-0.885,6.025 c2.608,3.268,7.463,4.358,11.629,2.602c0.897-0.378,1.784-0.784,2.784-0.977c-1.394,2.936-3.921,4.27-6.967,4.525 c-5.548,0.466-9.619-1.916-12.279-6.947c-3.572,2.302-4.043,5.815-4.304,9.741c8.069-1.34,15.729-0.733,22.835,2.952 c1.453-1.537,2.796-3.023,4.209-4.438c8.344-8.36,17.276-10.051,28.089-5.209c3.68,1.647,7.244,3.547,10.862,5.331 c0.022,0.249,0.046,0.5,0.068,0.75c-6.489,1.327-12.931,3.038-19.484,3.871c-6.548,0.833-13.209,0.788-20.488,1.162 c1.864,1.177,3.136,2.053,4.476,2.81c3.539,2.003,6.051,4.968,8.301,8.262c1.039,1.521,2.453,2.788,3.697,4.171 c-1.97-1.363-3.939-2.727-5.505-3.813c1.049,2.393,2.297,5.235,3.478,7.925c0.921-1.275,1.828-2.531,2.733-3.787 c7.931-2.76,14.103-0.792,17.865,5.828c1.856,3.269,2.527,6.704,0.652,10.255c-0.164,0.312-0.343,0.647-0.383,0.986 c-0.384,3.238-1.026,3.81-4.144,3.616c-0.281-0.018-0.584-0.114-0.84-0.042c-4.844,1.367-8.215-1.156-11.275-4.291 c-1.187-1.217-2.089-2.705-2.921-3.807c-0.617,6.992-1.259,14.254-1.899,21.517c-0.254,0.027-0.508,0.056-0.762,0.084 c-1.09-2.113-2.195-4.216-3.268-6.338c-3.736-7.402-7.264-14.948-7.435-23.379c-0.076-3.787,1.028-7.601,1.643-11.396 c0.062-0.379,0.437-0.707,0.813-1.035c-1.467,5.11-1.146,10.217,0.38,15.144c1.516,4.892,3.564,9.621,5.748,14.32 c1.229-7.876,1.141-15.56-2.173-22.978c0.108,2.091,0.218,4.179,0.327,6.27c-0.243,0.022-0.487,0.047-0.73,0.07 c-0.295-2.478-0.694-4.949-0.858-7.437c-0.228-3.438-0.917-6.357-4.72-7.79c-4.141-1.558-8.126-3.521-12.357-5.387 c1.016,2.032,2.692,3.795,2.455,5.252c-0.46,2.821,1.125,3.947,2.706,5.564c4.77,4.879,2.862,12.35-0.428,15.625 c-3.302,3.291-7.434,3.614-11.582,0.645c0.537,0.073,0.826,0.083,1.098,0.156c4.127,1.088,7.062,0.029,8.945-3.243 c2.031-3.525,1.729-8.769-1.022-10.993c-4.225-3.414-8.609-3.665-11.362,2.226c-1.755,3.757-1.01,7.419,1.384,10.842 c-3.431-0.319-5.755-5.382-4.882-10.287c1.249-7.013,6.28-9.877,14.031-7.985c0.665-3.183-2.013-7.729-5.089-8.319 c-4.379-0.841-8.782-0.73-13.129,0.304c-0.714,0.171-1.354,0.645-2.027,0.979L27,25.87z M88.627,59.182 c0.428-1.822,1.266-3.658,1.205-5.465c-0.206-6.139-6.894-11.304-12.995-10.29c-2.856,0.475-3.899,1.771-3.536,4.592 c0.467,3.633,2.352,6.565,4.902,9.094c2.003,1.985,4.322,3.198,7.324,3.116c1.392-0.038,2.839,0.744,3.689-1.167 C88.791,59.147,88.482,59.211,88.627,59.182z M53.859,23.952c10.181-1.598,20.188-3.169,30.196-4.739 c-7.219-5.95-19.143-5.591-25.48,0.284c3.572-1.036,7.022-1.561,10.538-0.84C58.869,20.404,58.166,20.637,53.859,23.952z"/><path d="M26.944,25.822c-0.858,3.718-1.86,7.411-2.523,11.163c-0.435,2.464-0.38,5.011-0.726,7.517 c-0.931-3.767-0.858-7.589,0.133-11.272c0.686-2.551,2.093-4.909,3.175-7.357C27,25.87,26.944,25.822,26.944,25.822z"/><path d="M43.735,37.666c2.154,0.811,3.749,2.641,4.124,5.399c0.329,2.418-1.049,4.45-3.321,5.624 c0.628-1.612,2.089-3.61,1.954-5.498C46.354,41.243,44.665,39.402,43.735,37.666z"/><path d="M42.01,5.789c2.872-2.047,7.23-1.716,8.809,0.461C48.029,6.105,44.858,5.939,42.01,5.789z"/><path d="M36.059,52.25c1.847,0.812,3.333,1.466,4.82,2.119c0.03,0.129,0.061,0.258,0.091,0.386 c-1.118-0.079-2.338,0.082-3.318-0.324C36.975,54.15,36.631,53.082,36.059,52.25z"/><path d="M77.477,45.168c4.851-1.278,9.779,3.948,8.717,9.663C85.02,49.813,82.886,46.067,77.477,45.168z"/></svg>