<svg version="1.1" xmlns="http://www.w3.org/2000/svg" xmlns:xlink="http://www.w3.org/1999/xlink" x="0px" y="0px" width="100px" height="100px" viewBox="0 0 58.88 59.156" style="enable-background:new 0 0 58.88 59.156;" xmlSpace="preserve" > <path d="M18.897,10.835C32.395,16.096,41.72,25.19,47.858,38.322C32.091,45.187,16.523,51.959,0,59.156 C6.493,42.551,12.656,26.792,18.897,10.835z M33.058,24.871c-4.319,0.005-7.261,2.776-7.336,6.919 c-0.077,4.225,3.023,7.432,7.211,7.461c4.173,0.028,7.348-3.144,7.334-7.329C40.254,27.838,37.218,24.868,33.058,24.871z M9.626,43.747c0.009,2.815,2.263,5.077,5.073,5.092c2.644,0.012,5.245-2.498,5.282-5.104c0.042-2.887-2.439-5.253-5.438-5.185 C11.595,38.619,9.617,40.708,9.626,43.747z"/>{' '}<path d="M58.88,35.033c-0.597,0.656-1.262,2.029-2.036,2.091c-1.15,0.095-2.899-0.392-3.476-1.238 c-1.799-2.655-2.993-5.703-4.733-8.4c-6.181-9.589-14.721-16.471-25.207-21.027c-0.494-0.218-1.002-0.406-1.514-0.575 c-2.028-0.673-3.275-1.945-2.464-4.111c0.908-2.431,3.011-1.9,4.65-1.098c4.452,2.181,9.049,4.219,13.116,6.992 c9.199,6.279,15.998,14.69,20.686,24.741C58.214,33.079,58.424,33.802,58.88,35.033z"/>{' '}</svg>